ffmpeg started on 2025-06-27 at 10:13:58
Report written to "D:\Convert\FFMetrics\reports\ssim_report-6.txt"
Log level: 32
Command line:
ffmpeg -hide_banner -nostdin -i "G:\\\xc0\xed\xe8\xec\xe5\\[\xd2\xee\xef-4]\\\xd2\xee\xea\xe8\xe9\xf1\xea\xe8\xe9 \xc3\xf3\xeb\xfc\\\xd2\xc2-4\\Tokyo_Ghoul_Re_[08]_[AniLibria_TV]_[HDTVRip_720p]_HEVC.mkv" -i "G:\\\xc0\xed\xe8\xec\xe5\\[\xd2\xee\xef-4]\\\xd2\xee\xea\xe8\xe9\xf1\xea\xe8\xe9 \xc3\xf3\xeb\xfc\\\xd2\xc2-4\\Tokyo_Ghoul_Re_[08]_[AniLibria_TV]_[HDTVRip_720p].mkv" -lavfi "[0:v]settb=AVTB,setpts=PTS-STARTPTS,format=pix_fmts=yuv420p10,fps=24000/1001,scale=1280:720:flags=bicubic[main];[1:v]settb=AVTB,setpts=PTS-STARTPTS,format=pix_fmts=yuv420p,fps=24000/1001,scale=1280:720:flags=bicubic[ref];[main][ref]ssim=eof_action=endall:stats_file='D\\:/Convert/FFMetrics/logs/ssim_logfile-6.txt'" -f null -
Input #0, matroska,webm, from 'G:\Аниме\[Топ-4]\Токийский Гуль\ТВ-4\Tokyo_Ghoul_Re_[08]_[AniLibria_TV]_[HDTVRip_720p]_HEVC.mkv':
  Metadata:
    ENCODER         : Lavf61.7.100
  Duration: 00:24:30.04, start: -0.021000, bitrate: 714 kb/s
  Stream #0:0(jpn): Video: hevc (Main 10), yuv420p10le(tv, bt709, progressive), 1280x720 [SAR 1:1 DAR 16:9], 23.98 fps, 23.98 tbr, 1k tbn (default)
      Metadata:
        ENCODER         : Lavc61.19.100 libx265
        BPS             : 445831
        DURATION        : 00:24:29.968708333
        NUMBER_OF_FRAMES: 35244
        NUMBER_OF_BYTES : 81919736
        _STATISTICS_WRITING_APP: mkvpropedit v66.0.0 ('Josie') 64-bit
        _STATISTICS_WRITING_DATE_UTC: 2025-06-26 14:16:26
        _STATISTICS_TAGS: BPS DURATION NUMBER_OF_FRAMES NUMBER_OF_BYTES
  Stream #0:1(rus): Audio: aac (LC), 48000 Hz, stereo, fltp (default) (forced)
      Metadata:
        title           : Lupin, Silv, December & MyAska
        ENCODER         : Lavc61.19.100 aac
        BPS             : 193574
        DURATION        : 00:24:30.016000000
        NUMBER_OF_FRAMES: 68908
        NUMBER_OF_BYTES : 35569755
        _STATISTICS_WRITING_APP: mkvpropedit v66.0.0 ('Josie') 64-bit
        _STATISTICS_WRITING_DATE_UTC: 2025-06-26 14:16:26
        _STATISTICS_TAGS: BPS DURATION NUMBER_OF_FRAMES NUMBER_OF_BYTES
  Stream #0:2(rus): Subtitle: ass (ssa) (default) (forced)
      Metadata:
        title           : Надписи
        BPS             : 65932
        DURATION        : 00:23:07.620000000
        NUMBER_OF_FRAMES: 38648
        NUMBER_OF_BYTES : 11436078
        _STATISTICS_WRITING_APP: mkvpropedit v66.0.0 ('Josie') 64-bit
        _STATISTICS_WRITING_DATE_UTC: 2025-06-26 14:16:26
        _STATISTICS_TAGS: BPS DURATION NUMBER_OF_FRAMES NUMBER_OF_BYTES
  Stream #0:3(rus): Subtitle: ass (ssa)
      Metadata:
        title           : Субтитры
        BPS             : 116
        DURATION        : 00:24:11.250000000
        NUMBER_OF_FRAMES: 317
        NUMBER_OF_BYTES : 21101
        _STATISTICS_WRITING_APP: mkvpropedit v66.0.0 ('Josie') 64-bit
        _STATISTICS_WRITING_DATE_UTC: 2025-06-26 14:16:26
        _STATISTICS_TAGS: BPS DURATION NUMBER_OF_FRAMES NUMBER_OF_BYTES
Input #1, matroska,webm, from 'G:\Аниме\[Топ-4]\Токийский Гуль\ТВ-4\Tokyo_Ghoul_Re_[08]_[AniLibria_TV]_[HDTVRip_720p].mkv':
  Metadata:
    encoder         : libebml v1.4.2 + libmatroska v1.6.4
    creation_time   : 2024-12-27T09:46:17.000000Z
  Duration: 00:24:30.02, start: 0.000000, bitrate: 1794 kb/s
  Stream #1:0(jpn): Video: h264 (Main), yuv420p(tv, bt709, progressive), 1280x720, SAR 1:1 DAR 16:9, 23.98 fps, 23.98 tbr, 1k tbn (default)
      Metadata:
        BPS             : 1518457
        DURATION        : 00:24:29.969000000
        NUMBER_OF_FRAMES: 35244
        NUMBER_OF_BYTES : 279010731
        _STATISTICS_WRITING_APP: mkvmerge v66.0.0 ('Josie') 64-bit
        _STATISTICS_WRITING_DATE_UTC: 2024-12-27 09:46:17
        _STATISTICS_TAGS: BPS DURATION NUMBER_OF_FRAMES NUMBER_OF_BYTES
  Stream #1:1(rus): Audio: aac (LC), 48000 Hz, stereo, fltp (default) (forced)
      Metadata:
        title           : Lupin, Silv, December & MyAska
        BPS             : 192093
        DURATION        : 00:24:30.016000000
        NUMBER_OF_FRAMES: 68907
        NUMBER_OF_BYTES : 35297528
        _STATISTICS_WRITING_APP: mkvmerge v66.0.0 ('Josie') 64-bit
        _STATISTICS_WRITING_DATE_UTC: 2024-12-27 09:46:17
        _STATISTICS_TAGS: BPS DURATION NUMBER_OF_FRAMES NUMBER_OF_BYTES
  Stream #1:2(rus): Subtitle: ass (ssa) (default) (forced)
      Metadata:
        title           : Надписи
        BPS             : 65932
        DURATION        : 00:23:07.620000000
        NUMBER_OF_FRAMES: 38648
        NUMBER_OF_BYTES : 11436078
        _STATISTICS_WRITING_APP: mkvmerge v66.0.0 ('Josie') 64-bit
        _STATISTICS_WRITING_DATE_UTC: 2024-12-27 09:46:17
        _STATISTICS_TAGS: BPS DURATION NUMBER_OF_FRAMES NUMBER_OF_BYTES
  Stream #1:3(rus): Subtitle: ass (ssa)
      Metadata:
        title           : Субтитры
        BPS             : 116
        DURATION        : 00:24:11.250000000
        NUMBER_OF_FRAMES: 317
        NUMBER_OF_BYTES : 21101
        _STATISTICS_WRITING_APP: mkvmerge v66.0.0 ('Josie') 64-bit
        _STATISTICS_WRITING_DATE_UTC: 2024-12-27 09:46:17
        _STATISTICS_TAGS: BPS DURATION NUMBER_OF_FRAMES NUMBER_OF_BYTES
  Stream #1:4: Attachment: ttf
      Metadata:
        filename        : OpenSanA.ttf
        mimetype        : application/x-truetype-font
  Stream #1:5: Attachment: ttf
      Metadata:
        filename        : REDOCTOB.otf
        mimetype        : application/x-truetype-font
  Stream #1:6: Attachment: ttf
      Metadata:
        filename        : simsun_0.ttc
        mimetype        : application/x-truetype-font
  Stream #1:7: Attachment: ttf
      Metadata:
        filename        : Snowstorm.ttf
        mimetype        : application/x-truetype-font
  Stream #1:8: Attachment: ttf
      Metadata:
        filename        : TEMPSITC.TTF
        mimetype        : application/x-truetype-font
  Stream #1:9: Attachment: otf
      Metadata:
        filename        : TrajanPro3-Bold.otf
        mimetype        : application/vnd.ms-opentype
  Stream #1:10: Attachment: otf
      Metadata:
        filename        : TrajanPro3-Regular.otf
        mimetype        : application/vnd.ms-opentype
  Stream #1:11: Attachment: ttf
      Metadata:
        filename        : v_HolyMackerelli_v1.9.ttf
        mimetype        : application/x-truetype-font
  Stream #1:12: Attachment: ttf
      Metadata:
        filename        : v_StraightJacketBB_v1.1.ttf
        mimetype        : application/x-truetype-font
  Stream #1:13: Attachment: ttf
      Metadata:
        filename        : XENI.TTF
        mimetype        : application/x-truetype-font
  Stream #1:14: Attachment: ttf
      Metadata:
        filename        : 10352__0.ttf
        mimetype        : application/x-truetype-font
  Stream #1:15: Attachment: ttf
      Metadata:
        filename        : Aero Matics Display Bold Italic.ttf
        mimetype        : application/x-truetype-font
  Stream #1:16: Attachment: ttf
      Metadata:
        filename        : Aero Matics Display Bold.ttf
        mimetype        : application/x-truetype-font
  Stream #1:17: Attachment: ttf
      Metadata:
        filename        : Aero Matics Display Italic.ttf
        mimetype        : application/x-truetype-font
  Stream #1:18: Attachment: ttf
      Metadata:
        filename        : Aero Matics Display Light Italic.ttf
        mimetype        : application/x-truetype-font
  Stream #1:19: Attachment: ttf
      Metadata:
        filename        : Aero Matics Display Light.ttf
        mimetype        : application/x-truetype-font
  Stream #1:20: Attachment: ttf
      Metadata:
        filename        : Aero_Matics_Display_Regular.ttf
        mimetype        : application/x-truetype-font
  Stream #1:21: Attachment: ttf
      Metadata:
        filename        : BenchNine-Regular.ttf
        mimetype        : application/x-truetype-font
Stream mapping:
  Stream #0:0 (hevc) -> settb:default
  Stream #1:0 (h264) -> settb:default
  ssim:default -> Stream #0:0 (wrapped_avframe)
  Stream #0:1 -> #0:1 (aac (native) -> pcm_s16le (native))
Output #0, null, to 'pipe:':
  Metadata:
    encoder         : Lavf61.7.100
  Stream #0:0: Video: wrapped_avframe, yuv420p10le(tv, bt709, progressive), 1280x720 [SAR 1:1 DAR 16:9], q=2-31, 200 kb/s, 23.98 fps, 23.98 tbn
      Metadata:
        encoder         : Lavc61.19.100 wrapped_avframe
  Stream #0:1(rus): Audio: pcm_s16le, 48000 Hz, stereo, s16, 1536 kb/s (default) (forced)
      Metadata:
        title           : Lupin, Silv, December & MyAska
        _STATISTICS_TAGS: BPS DURATION NUMBER_OF_FRAMES NUMBER_OF_BYTES
        BPS             : 193574
        DURATION        : 00:24:30.016000000
        NUMBER_OF_FRAMES: 68908
        NUMBER_OF_BYTES : 35569755
        _STATISTICS_WRITING_APP: mkvpropedit v66.0.0 ('Josie') 64-bit
        _STATISTICS_WRITING_DATE_UTC: 2025-06-26 14:16:26
        encoder         : Lavc61.19.100 pcm_s16le
frame=  485 fps=0.0 q=-0.0 size=N/A time=00:00:20.22 bitrate=N/A speed=39.3x    frame=  958 fps=930 q=-0.0 size=N/A time=00:00:39.95 bitrate=N/A speed=38.8x    frame= 1483 fps=959 q=-0.0 size=N/A time=00:01:01.85 bitrate=N/A speed=  40x    frame= 1981 fps=961 q=-0.0 size=N/A time=00:01:22.62 bitrate=N/A speed=40.1x    frame= 2451 fps=951 q=-0.0 size=N/A time=00:01:42.22 bitrate=N/A speed=39.7x    frame= 2936 fps=950 q=-0.0 size=N/A time=00:02:02.45 bitrate=N/A speed=39.6x    frame= 3400 fps=943 q=-0.0 size=N/A time=00:02:21.80 bitrate=N/A speed=39.3x    frame= 3852 fps=935 q=-0.0 size=N/A time=00:02:40.66 bitrate=N/A speed=  39x    frame= 4436 fps=957 q=-0.0 size=N/A time=00:03:05.01 bitrate=N/A speed=39.9x    frame= 5066 fps=983 q=-0.0 size=N/A time=00:03:31.29 bitrate=N/A speed=  41x    frame= 5544 fps=977 q=-0.0 size=N/A time=00:03:51.23 bitrate=N/A speed=40.8x    frame= 6036 fps=975 q=-0.0 size=N/A time=00:04:11.75 bitrate=N/A speed=40.7x    frame= 6387 fps=953 q=-0.0 size=N/A time=00:04:26.39 bitrate=N/A speed=39.7x    frame= 6719 fps=931 q=-0.0 size=N/A time=00:04:40.23 bitrate=N/A speed=38.8x    frame= 7095 fps=917 q=-0.0 size=N/A time=00:04:55.92 bitrate=N/A speed=38.3x    frame= 7405 fps=898 q=-0.0 size=N/A time=00:05:08.85 bitrate=N/A speed=37.4x    frame= 7798 fps=890 q=-0.0 size=N/A time=00:05:25.24 bitrate=N/A speed=37.1x    frame= 8089 fps=872 q=-0.0 size=N/A time=00:05:37.37 bitrate=N/A speed=36.4x    frame= 8654 fps=884 q=-0.0 size=N/A time=00:06:00.94 bitrate=N/A speed=36.9x    frame= 9128 fps=886 q=-0.0 size=N/A time=00:06:20.71 bitrate=N/A speed=36.9x    frame= 9755 fps=901 q=-0.0 size=N/A time=00:06:46.86 bitrate=N/A speed=37.6x    frame=10300 fps=908 q=-0.0 size=N/A time=00:07:09.59 bitrate=N/A speed=37.9x    frame=10895 fps=918 q=-0.0 size=N/A time=00:07:34.41 bitrate=N/A speed=38.3x    frame=11451 fps=926 q=-0.0 size=N/A time=00:07:57.60 bitrate=N/A speed=38.6x    frame=11936 fps=926 q=-0.0 size=N/A time=00:08:17.83 bitrate=N/A speed=38.6x    frame=12525 fps=935 q=-0.0 size=N/A time=00:08:42.39 bitrate=N/A speed=  39x    frame=13083 fps=940 q=-0.0 size=N/A time=00:09:05.67 bitrate=N/A speed=39.2x    frame=13659 fps=947 q=-0.0 size=N/A time=00:09:29.69 bitrate=N/A speed=39.5x    frame=14204 fps=950 q=-0.0 size=N/A time=00:09:52.42 bitrate=N/A speed=39.6x    frame=14784 fps=956 q=-0.0 size=N/A time=00:10:16.61 bitrate=N/A speed=39.9x    frame=15349 fps=961 q=-0.0 size=N/A time=00:10:40.18 bitrate=N/A speed=40.1x    frame=15985 fps=969 q=-0.0 size=N/A time=00:11:06.70 bitrate=N/A speed=40.4x    frame=16521 fps=971 q=-0.0 size=N/A time=00:11:29.06 bitrate=N/A speed=40.5x    frame=17103 fps=976 q=-0.0 size=N/A time=00:11:53.33 bitrate=N/A speed=40.7x    frame=17597 fps=975 q=-0.0 size=N/A time=00:12:13.94 bitrate=N/A speed=40.7x    frame=18171 fps=979 q=-0.0 size=N/A time=00:12:37.88 bitrate=N/A speed=40.8x    frame=18660 fps=978 q=-0.0 size=N/A time=00:12:58.27 bitrate=N/A speed=40.8x    frame=19229 fps=981 q=-0.0 size=N/A time=00:13:22.00 bitrate=N/A speed=40.9x    frame=19705 fps=980 q=-0.0 size=N/A time=00:13:41.86 bitrate=N/A speed=40.9x    frame=20325 fps=985 q=-0.0 size=N/A time=00:14:07.72 bitrate=N/A speed=41.1x    frame=20942 fps=990 q=-0.0 size=N/A time=00:14:33.45 bitrate=N/A speed=41.3x    frame=21415 fps=988 q=-0.0 size=N/A time=00:14:53.18 bitrate=N/A speed=41.2x    frame=21955 fps=990 q=-0.0 size=N/A time=00:15:15.70 bitrate=N/A speed=41.3x    frame=22492 fps=991 q=-0.0 size=N/A time=00:15:38.10 bitrate=N/A speed=41.3x    frame=23009 fps=991 q=-0.0 size=N/A time=00:15:59.66 bitrate=N/A speed=41.3x    frame=23555 fps=993 q=-0.0 size=N/A time=00:16:22.43 bitrate=N/A speed=41.4x    frame=24094 fps=993 q=-0.0 size=N/A time=00:16:44.92 bitrate=N/A speed=41.4x    frame=24585 fps=993 q=-0.0 size=N/A time=00:17:05.39 bitrate=N/A speed=41.4x    frame=25116 fps=994 q=-0.0 size=N/A time=00:17:27.54 bitrate=N/A speed=41.4x    frame=25702 fps=997 q=-0.0 size=N/A time=00:17:51.98 bitrate=N/A speed=41.6x    frame=26282 fps=999 q=-0.0 size=N/A time=00:18:16.17 bitrate=N/A speed=41.7x    frame=26856 fps=1001 q=-0.0 size=N/A time=00:18:40.11 bitrate=N/A speed=41.8x    frame=27278 fps=998 q=-0.0 size=N/A time=00:18:57.71 bitrate=N/A speed=41.6x    frame=27679 fps=994 q=-0.0 size=N/A time=00:19:14.44 bitrate=N/A speed=41.4x    frame=28071 fps=989 q=-0.0 size=N/A time=00:19:30.79 bitrate=N/A speed=41.3x    frame=28515 fps=987 q=-0.0 size=N/A time=00:19:49.31 bitrate=N/A speed=41.2x    frame=29113 fps=990 q=-0.0 size=N/A time=00:20:14.25 bitrate=N/A speed=41.3x    frame=29675 fps=992 q=-0.0 size=N/A time=00:20:37.69 bitrate=N/A speed=41.4x    frame=30269 fps=994 q=-0.0 size=N/A time=00:21:02.46 bitrate=N/A speed=41.5x    frame=30856 fps=997 q=-0.0 size=N/A time=00:21:26.95 bitrate=N/A speed=41.6x    frame=31393 fps=997 q=-0.0 size=N/A time=00:21:49.34 bitrate=N/A speed=41.6x    frame=31972 fps=999 q=-0.0 size=N/A time=00:22:13.49 bitrate=N/A speed=41.7x    frame=32509 fps=1000 q=-0.0 size=N/A time=00:22:35.89 bitrate=N/A speed=41.7x    frame=32831 fps=994 q=-0.0 size=N/A time=00:22:49.32 bitrate=N/A speed=41.5x    frame=33277 fps=992 q=-0.0 size=N/A time=00:23:07.92 bitrate=N/A speed=41.4x    frame=33697 fps=989 q=-0.0 size=N/A time=00:23:25.44 bitrate=N/A speed=41.3x    frame=34132 fps=987 q=-0.0 size=N/A time=00:23:43.58 bitrate=N/A speed=41.2x    frame=34615 fps=986 q=-0.0 size=N/A time=00:24:03.73 bitrate=N/A speed=41.1x    frame=35204 fps=989 q=-0.0 size=N/A time=00:24:28.30 bitrate=N/A speed=41.2x    [Parsed_ssim_10 @ 000002054e576f40] SSIM Y:0.990855 (20.387990) U:0.992652 (21.338100) V:0.992647 (21.335475) All:0.991453 (20.681812)
[out#0/null @ 000002054d87bec0] video:15144KiB audio:275632KiB subtitle:0KiB other streams:0KiB global headers:0KiB muxing overhead: unknown
frame=35244 fps=989 q=-0.0 Lsize=N/A time=00:24:29.96 bitrate=N/A speed=41.2x    
